<?xml version="1.0" encoding="utf-8"?>
<!-- Generator: Adobe Illustrator 25.4.1, SVG Export Plug-In . SVG Version: 6.00 Build 0)  -->
<svg version="1.1" id="Layer_1" xmlns="http://www.w3.org/2000/svg" xmlns:xlink="http://www.w3.org/1999/xlink" x="0px" y="0px"
	 viewBox="0 0 4000 1100" style="enable-background:new 0 0 4000 1100;" xml:space="preserve">
<style type="text/css">
	.st0{fill:#FFFFFF;}
</style>
<g>
	<path class="st0" d="M516.33,655.48l153.86,254.5H538.58L436.97,735.8L335.37,909.98H203.76l153.86-254.5L203.76,401.94h131.61
		l99.67,177.09l103.54-177.09h131.61L516.33,655.48z"/>
	<path class="st0" d="M726.91,174.53h269.02c148.06,0,253.54,60.96,253.54,192.57c0,70.64-42.58,129.67-103.54,145.16
		c81.29,13.55,142.25,87.09,142.25,183.86c0,133.54-94.83,213.86-252.57,213.86h-308.7V174.53z M975.6,472.58
		c88.06,0,140.32-28.06,140.32-88.06c0-59.03-42.58-95.8-128.7-95.8H855.61v183.86H975.6z M1002.7,795.79
		c87.09,0,151.93-33.87,151.93-112.25c0-70.64-60-110.32-157.73-110.32H855.61v222.57H1002.7z"/>
	<path class="st0" d="M1319.9,768.7c0-47.42,18.39-88.06,58.06-116.12c44.51-32.9,115.16-51.29,249.67-51.29h29.03v-26.13
		c0-55.16-24.19-90-91.93-90c-73.54,0-94.83,38.71-96.77,71.61h-122.9c1.94-82.25,48.39-169.35,222.57-169.35
		c135.48,0,217.73,53.22,217.73,220.63v176.12v62.9v62.9h-122.9v-69.67h-1.94c-30.97,50.32-90.96,80.32-169.35,80.32
		C1367.32,920.63,1319.9,845.15,1319.9,768.7z M1657.63,742.57v-67.74h-24.19c-102.58,0-185.8,20.32-185.8,89.03
		c0,42.58,32.9,66.77,87.09,66.77C1618.92,830.63,1657.63,774.51,1657.63,742.57z"/>
	<path class="st0" d="M1834.91,655.48c0-157.73,90-269.02,245.79-269.02c134.51,0,229.34,83.22,238.05,205.15h-125.8
		C2182.31,522.9,2142.64,490,2082.64,490c-77.42,0-122.9,61.93-122.9,165.48s45.48,166.44,122.9,166.44
		c60,0,100.64-39.68,111.29-95.8h124.83c-8.71,104.51-93.87,199.35-238.05,199.35C1922.97,925.47,1834.91,810.31,1834.91,655.48z"/>
	<path class="st0" d="M2653.58,909.98l-155.8-202.25v202.25h-127.74V174.53h127.74v449.01L2641,401.94h133.54l-169.35,253.54
		l181.93,254.5H2653.58z"/>
	<path class="st0" d="M2757.12,655.48c0-157.73,90.96-269.02,242.89-269.02c137.41,0,240.96,89.03,240.96,239.02v66.77h-357.08
		c8.71,79.35,50.32,129.67,122.9,129.67c60,0,98.71-37.74,109.35-72.58h124.83c-8.71,81.29-93.87,176.12-238.05,176.12
		C2845.18,925.47,2757.12,810.31,2757.12,655.48z M3115.17,609.03C3114.2,529.68,3064.85,490,3001.95,490
		c-64.84,0-116.12,39.68-116.12,119.03H3115.17z"/>
	<path class="st0" d="M3796.24,174.53v735.45h-124.83v-60c-33.87,45.48-99.67,75.48-159.67,75.48
		c-133.54,0-223.54-108.38-223.54-270.96c0-160.64,90-268.05,225.47-268.05c59.03,0,117.09,30.97,154.83,80.32V174.53H3796.24z
		 M3668.5,629.35c0-84.19-50.32-139.35-126.77-139.35c-77.42,0-127.74,65.8-127.74,164.51c0,100.64,51.29,167.41,128.7,167.41
		c75.48,0,125.8-59.03,125.8-147.09V629.35z"/>
</g>
</svg>
