<?xml version="1.0" encoding="utf-8"?>
<!-- Generator: Adobe Illustrator 25.4.1, SVG Export Plug-In . SVG Version: 6.00 Build 0)  -->
<svg version="1.1" id="Layer_1" xmlns="http://www.w3.org/2000/svg" xmlns:xlink="http://www.w3.org/1999/xlink" x="0px" y="0px"
	 viewBox="0 0 2000 2000" style="enable-background:new 0 0 2000 2000;" xml:space="preserve">
<style type="text/css">
	.st0{fill:#FFFFFF;}
</style>
<path class="st0" d="M1933.77,777.45l-250.83-250.9l-291.02-126.86l-117.28,70.87l-216.23-216.23L743.21,116.96V791.7L66.23,1200.79
	l251.04,251.04l298.83,130.18l131.2-80.37l243.98,243.98l315.24,137.41l-0.19-722.52L1933.77,777.45z M1060.5,270.13l205.56,205.56
	l-205.56,124.3V270.13z M752.91,797.16V131.75l297.9,129.86v355.57l341.83-206.58l277.05,120.77l-618.88,377.9v712.97l-297.9-129.88
	v-401.22l-383.46,234.1h-0.02L84.56,1201.05L752.91,797.16z M322.82,1443.7L95.56,1216.41l271.47,118.33l227.15,227.17
	L322.82,1443.7z M616.45,1570.44L377.61,1331.6l365.61-223.2v384.41L616.45,1570.44z M996.86,1737.47L769.57,1510.2l283.3,123.49
	l227.27,227.29L996.86,1737.47z M1060.5,1627.62V923.67l236.15,236.15l0.19,704.11L1060.5,1627.62z M1302.22,1151.68l-238.77-238.77
	l616-376.14l238.77,238.82L1302.22,1151.68z"/>
</svg>
