<?xml version="1.0" encoding="utf-8"?>
<!-- Generator: Adobe Illustrator 25.4.1, SVG Export Plug-In . SVG Version: 6.00 Build 0)  -->
<svg version="1.1" id="Layer_1" xmlns="http://www.w3.org/2000/svg" xmlns:xlink="http://www.w3.org/1999/xlink" x="0px" y="0px"
	 viewBox="0 0 2000 2000" style="enable-background:new 0 0 2000 2000;" xml:space="preserve">
<style type="text/css">
	.st0{fill:#040A1C;}
</style>
<g>
	<polygon class="st0" points="614.47,1573.48 741.43,1495.73 741.43,1110.73 375.26,1334.27 	"/>
	<polygon class="st0" points="92.78,1218.91 320.4,1446.54 592.17,1564.93 364.67,1337.41 	"/>
	<polygon class="st0" points="1059.19,271.19 1059.19,601.55 1265.07,477.06 	"/>
	<polygon class="st0" points="1059.19,925.72 1059.19,1630.74 1295.89,1867.41 1295.7,1162.22 	"/>
	<polygon class="st0" points="1049.49,1625.34 1049.49,911.29 1669.31,532.81 1391.84,411.86 1049.49,618.75 1049.49,262.65 
		751.13,132.59 751.13,799.02 81.77,1203.52 367.07,1327.89 367.09,1327.89 751.13,1093.44 751.13,1495.26 	"/>
	<polygon class="st0" points="1679.09,538.23 1062.15,914.94 1301.29,1154.08 1918.23,777.42 	"/>
	<polygon class="st0" points="767.82,1513.14 995.46,1740.75 1279.17,1864.45 1051.56,1636.82 	"/>
</g>
</svg>
