<?xml version="1.0" encoding="utf-8"?>
<!-- Generator: Adobe Illustrator 25.4.1, SVG Export Plug-In . SVG Version: 6.00 Build 0)  -->
<svg version="1.1" id="Layer_1" xmlns="http://www.w3.org/2000/svg" xmlns:xlink="http://www.w3.org/1999/xlink" x="0px" y="0px"
	 viewBox="0 0 2000 2000" style="enable-background:new 0 0 2000 2000;" xml:space="preserve">
<style type="text/css">
	.st0{fill:#040A1C;}
</style>
<g>
	<polygon class="st0" points="1070.49,289.49 1070.49,572.61 1246.92,465.92 	"/>
	<polygon class="st0" points="1033.58,1628.08 1033.58,907.25 1654.92,527.85 1399.88,416.67 1033.58,638.05 1033.58,257.02 
		753.89,135.1 753.89,807.03 81.77,1213.2 344.7,1327.82 753.89,1078.01 753.89,1506.14 	"/>
	<polygon class="st0" points="123.64,1271.71 305.48,1453.57 517.29,1545.83 335.54,1364.07 	"/>
	<polygon class="st0" points="601.99,1578.31 716.98,1507.9 716.98,1143.78 375.77,1352.09 	"/>
	<polygon class="st0" points="817.4,1574.1 999.24,1755.93 1223.28,1853.61 1041.45,1671.77 	"/>
	<polygon class="st0" points="1692.06,548.44 1081.68,921.14 1307.85,1147.3 1918.23,774.65 	"/>
	<polygon class="st0" points="1070.49,962.16 1070.49,1648.62 1286.79,1864.9 1286.61,1178.28 	"/>
</g>
</svg>
