<?xml version="1.0" encoding="utf-8"?>
<!-- Generator: Adobe Illustrator 25.4.1, SVG Export Plug-In . SVG Version: 6.00 Build 0)  -->
<svg version="1.1" id="Layer_1" xmlns="http://www.w3.org/2000/svg" xmlns:xlink="http://www.w3.org/1999/xlink" x="0px" y="0px"
	 viewBox="0 0 2000 2000" style="enable-background:new 0 0 2000 2000;" xml:space="preserve">
<style type="text/css">
	.st0{fill:#040A1C;}
</style>
<path class="st0" d="M1933.77,784.8l-258.52-258.59l-292.9-127.68l-111.78,67.55l-206.09-206.09L736.1,116.88v672.19L66.23,1193.86
	L325,1452.64l300.58,130.95l125.4-76.82l233.18,233.18l328.43,143.16l-0.18-718.97L1933.77,784.8z M1239.63,484.74l-167.63,101.37
	v-269L1239.63,484.74z M382.37,1303.68l-249.82-108.91l638.62-385.93V170.41l265.74,115.84v362.04l348.05-210.34l242.33,105.63
	l-590.38,360.5v684.9l-265.74-115.86v-406.8L382.37,1303.68z M345.11,1423.16l-172.78-172.79l201.34,87.76l172.69,172.71
	L345.11,1423.16z M1662.58,563.15l214.89,214.94l-579.96,354.08l-214.89-214.89L1662.58,563.15z M1277.51,1813.99l-205.52-205.5
	V956.25l205.35,205.35L1277.51,1813.99z M1044.4,1630.49l172.76,172.78l-212.87-92.81l-172.78-172.76L1044.4,1630.49z
	 M626.84,1541.69L411.9,1326.75l324.21-197.93v345.97L626.84,1541.69z"/>
</svg>
